<?xml version="1.0" encoding="utf-8"?>
<!-- Generator: Adobe Illustrator 19.2.1, SVG Export Plug-In . SVG Version: 6.00 Build 0)  -->
<svg version="1.1" id="Layer_1" xmlns="http://www.w3.org/2000/svg" xmlns:xlink="http://www.w3.org/1999/xlink" x="0px" y="0px"
	 viewBox="0 0 60 64" style="enable-background:new 0 0 60 64;" xml:space="preserve">
<g>
	<path d="M59.9,19.2C59.9,8.7,50,0.2,41,0v0h-9v14h8.3c3.6,0,6.5,2.5,6.5,6s-2.8,6-6.5,6H32v12h8.3c3.6,0,6.5,3,6.5,6.5
		S43.9,51,40.3,51H32v13h9v0c9-0.2,18.9-8.7,18.9-19.2c0-4.9-1.9-9.4-5-12.8C58,28.6,59.9,24.1,59.9,19.2z"/>
	<polygon points="19,0 19,14 7.7,14 0,25.7 0,26 19,26 19,38 7.7,38 0,51.1 0,51 19,51 19,64 26,64 26,0 	"/>
</g>
</svg>
